<?xml version="1.0" encoding="utf-8"?>
<!-- Generator: Adobe Illustrator 22.0.1, SVG Export Plug-In . SVG Version: 6.00 Build 0)  -->
<svg version="1.1" xmlns="http://www.w3.org/2000/svg" xmlns:xlink="http://www.w3.org/1999/xlink" x="0px" y="0px"
	 viewBox="0 0 1919.9 210.8" style="enable-background:new 0 0 1919.9 210.8;" xml:space="preserve">
<style type="text/css">
	.st0{fill:none;stroke:#FFFFFF;stroke-width:4;stroke-miterlimit:10;}
</style>
<g id="Layer_1">
</g>
<g id="Layer_2">
	<g id="Layer_2_1_">
		<g id="Layer_1-2">
			<path class="st0" d="M88.9,205.6L6.4,4.9h68.5L126.6,143L171.5,4.9h66.9L284.2,139L334.9,4.9h61.8l-81.2,200.7h-63.4L203.8,71.3
				l-45.6,134.3H88.9z"/>
			<path class="st0" d="M496.4,205.6h-62.9V4.9h161.8c66.9,0,87.1,23.2,87.1,52.1v3.2c0,28.9-24,39.7-37.2,44
				c20.5,5.9,38,20.2,38,46.1v29.4c0,16.2,1.9,21.3,3.8,24.5v1.3h-63.8c-1.9-2.4-3-5.4-3-12.7v-23.2c0-24.5-10.8-35.3-41.8-35.3h-82
				V205.6z M496.4,89.9h95.2c18,0,25.4-8.6,25.4-19.7v-0.3c0-10.5-7-19.4-25.4-19.4h-95.2V89.9z"/>
			<path class="st0" d="M945.4,4.9v45.6H795.9v29.7h145.9v45.9H795.9V159H948v46.7H733.9V4.9H945.4z"/>
			<path class="st0" d="M1185.6,169H1064l-18,36.7h-64.1L1083.4,4.9h81.5l107.4,200.7h-67.7L1185.6,169z M1123.5,48.4l-37.2,75.3
				h76.1L1123.5,48.4z"/>
			<path class="st0" d="M1346.5,52.4h-86.3V4.9h236.3v47.5h-86.6v153.2h-63.4V52.4z"/>
			<path class="st0" d="M1537.7,4.9h62.9V78h134.9V4.9h62.9v200.7h-62.9v-79h-134.9v79h-62.9V4.9z"/>
			<path class="st0" d="M1915.4,205.6h-65v-47.2h65L1915.4,205.6z"/>
		</g>
	</g>
</g>
</svg>
