<?xml version="1.0" encoding="utf-8"?>
<!-- Generator: Adobe Illustrator 22.0.1, SVG Export Plug-In . SVG Version: 6.00 Build 0)  -->
<svg version="1.1" xmlns="http://www.w3.org/2000/svg" xmlns:xlink="http://www.w3.org/1999/xlink" x="0px" y="0px"
	 viewBox="0 0 1914 198.7" style="enable-background:new 0 0 1914 198.7;" xml:space="preserve">
<style type="text/css">
	.st0{fill:#FFFFFF; mix-blend-mode: difference;}
</style>
<g id="Layer_1">
</g>
<g id="Layer_2">
	<g id="Layer_2_1_">
		<g id="Layer_1-2">
			<path class="st0" d="M86,199.7L3.5-0.9H72l51.7,138.1L168.5-0.9h66.9l45.8,134.1L332-0.9h61.8l-81.2,200.7h-63.4L200.9,65.4
				l-45.6,134.3H86z"/>
			<path class="st0" d="M493.5,199.7h-62.9V-0.9h161.8c66.9,0,87.1,23.2,87.1,52.1v3.2c0,28.9-24,39.7-37.2,44
				c20.5,5.9,38,20.2,38,46.1v29.4c0,16.2,1.9,21.3,3.8,24.5v1.3h-63.8c-1.9-2.4-3-5.4-3-12.7v-23.2c0-24.5-10.8-35.3-41.8-35.3h-82
				V199.7z M493.5,84h95.2c18,0,25.4-8.6,25.4-19.7v-0.3c0-10.5-7-19.4-25.4-19.4h-95.2V84z"/>
			<path class="st0" d="M942.4-0.9v45.6H793v29.7h145.9v45.9H793v32.9h152.1v46.7H731V-0.9H942.4z"/>
			<path class="st0" d="M1182.7,163.1H1061l-18,36.7H979L1080.5-0.9h81.5l107.4,200.7h-67.7L1182.7,163.1z M1120.6,42.5l-37.2,75.3
				h76.1L1120.6,42.5z"/>
			<path class="st0" d="M1343.6,46.5h-86.3V-0.9h236.3v47.5H1407v153.2h-63.4V46.5z"/>
			<path class="st0" d="M1534.7-0.9h62.9v73.1h134.9V-0.9h62.9v200.7h-62.9v-79h-134.9v79h-62.9V-0.9z"/>
			<path class="st0" d="M1912.5,199.7h-65v-47.2h65L1912.5,199.7z"/>
		</g>
	</g>
</g>
</svg>
